<?xml version="1.0" encoding="UTF-8" standalone="no"?>
<!DOCTYPE svg PUBLIC "-//W3C//DTD SVG 1.1//EN" "http://www.w3.org/Graphics/SVG/1.1/DTD/svg11.dtd">
<svg width="100%" height="100%" viewBox="0 0 83 82" version="1.1" xmlns="http://www.w3.org/2000/svg" xmlns:xlink="http://www.w3.org/1999/xlink" xml:space="preserve" xmlns:serif="http://www.serif.com/" style="fill-rule:evenodd;clip-rule:evenodd;stroke-linejoin:round;stroke-miterlimit:1.41421;">
    <g transform="matrix(1,0,0,1,-52,-88)">
        <g transform="matrix(0.0328,0,0,0.0328,93.2671,128.895)">
            <g transform="matrix(1,0,0,1,-1250,-1241)">
                <clipPath id="_clip1">
                    <rect x="0" y="0" width="2500" height="2482"/>
                </clipPath>
                <g clip-path="url(#_clip1)">
                    <path d="M1250.6,2482L1236.28,2474.84C677.827,2147.89 255.41,1608.53 83.579,964.162C56.134,862.734 35.849,758.919 21.529,653.912C8.403,548.904 1.244,442.703 0.05,336.502C0.05,318.603 -2.336,320.989 14.37,312.637C224.385,193.31 446.333,106.201 681.407,51.311C768.516,31.025 855.625,15.513 943.926,4.773C1065.64,-9.546 1187.35,-15.512 1310.26,-13.126C1379.47,-11.933 1447.49,-7.16 1515.5,0C1857.97,36.991 2178.96,139.613 2479.66,307.863C2484.44,310.25 2488.02,312.637 2492.79,315.023C2497.56,317.41 2499.95,320.989 2499.95,326.956L2499.95,344.855C2498.76,406.905 2496.37,467.762 2491.6,529.812C2484.44,618.113 2472.5,705.222 2455.8,792.331C2420,979.674 2363.92,1159.86 2286.35,1332.88C2163.45,1608.53 1995.2,1854.34 1782.8,2069.13C1630.06,2224.25 1459.42,2357.9 1270.88,2468.87C1263.72,2473.65 1257.76,2477.23 1250.6,2482ZM114.604,397.359L114.604,411.678C114.604,498.787 120.571,587.088 131.31,673.004C140.856,751.76 153.982,829.322 171.881,906.885C175.461,920.011 179.041,933.137 185.007,946.263C292.401,1174.18 540.601,1295.89 786.415,1239.81C973.758,1196.85 1126.5,1052.46 1177.81,867.507C1192.13,816.196 1196.9,763.692 1199.29,711.188C1200.48,676.584 1204.06,641.979 1210.03,607.374C1250.6,397.359 1390.21,224.335 1587.1,141.999C1597.84,137.226 1609.77,133.646 1620.51,128.873C1621.7,127.68 1624.09,127.68 1624.09,125.293C1593.07,114.554 1408.11,95.462 1297.13,93.075C1058.48,88.302 824.6,119.327 596.685,188.537C427.241,239.847 267.343,309.057 114.604,397.359ZM1874.68,1826.89C1880.64,1823.32 1884.22,1818.54 1886.61,1814.96C1934.34,1755.3 1979.68,1693.25 2021.45,1628.81C2170.61,1397.32 2275.62,1147.92 2334.09,878.246C2354.37,786.364 2367.5,694.483 2375.85,601.408C2381.82,538.164 2384.2,474.921 2384.2,410.485C2384.2,405.712 2384.2,402.132 2383.01,397.359L2365.11,386.619C2316.19,359.174 2266.07,332.922 2215.95,309.057C2141.97,274.452 2067.99,243.427 1990.42,218.368C1896.15,188.537 1800.69,184.957 1705.23,208.822C1431.97,274.452 1256.56,542.937 1309.07,818.583C1337.7,971.321 1420.04,1090.65 1551.3,1174.18C1559.65,1180.14 1569.2,1184.92 1577.55,1190.88C1674.21,1249.35 1749.38,1329.3 1803.08,1428.34C1860.36,1532.16 1885.42,1644.33 1878.26,1762.46C1879.45,1782.74 1877.06,1804.22 1874.68,1826.89ZM1250.6,2360.29C1255.37,2357.9 1261.34,2354.32 1266.11,2350.74C1416.46,2262.44 1554.88,2157.43 1681.37,2038.1C1689.72,2030.94 1695.69,2021.4 1700.46,2011.85C1708.81,1996.34 1717.16,1979.63 1724.33,1964.12C1783.99,1840.02 1797.11,1711.15 1757.74,1577.5C1680.17,1319.76 1431.97,1171.79 1182.58,1202.82C1110.98,1211.17 1045.35,1233.84 983.304,1269.64C865.171,1336.46 738.684,1363.91 602.651,1350.78C535.828,1344.81 472.585,1326.91 411.728,1300.66C363.998,1279.18 318.653,1252.93 278.082,1220.71C275.696,1218.33 272.116,1217.13 266.15,1213.56C267.343,1219.52 268.536,1223.1 269.729,1225.49C323.426,1361.52 389.056,1490.39 466.619,1613.3C551.341,1745.75 647.996,1868.66 757.776,1980.83C867.557,2092.99 988.077,2193.23 1118.14,2280.34C1177.81,2318.52 1233.89,2353.13 1250.6,2360.29Z" style="fill:none;"/>
                    <path d="M114.604,397.359C267.343,309.057 427.241,239.847 595.492,189.73C824.6,121.713 1057.29,89.495 1295.94,94.268C1406.91,96.655 1591.87,114.554 1622.9,126.487C1624.09,128.873 1621.7,130.066 1619.32,130.066C1608.58,134.839 1596.64,138.419 1585.9,143.192C1389.02,225.528 1249.4,398.552 1208.83,608.567C1202.87,643.172 1199.29,677.777 1198.09,712.382C1196.9,764.886 1192.13,817.389 1176.61,868.7C1124.11,1053.66 972.565,1198.04 785.222,1241C539.408,1297.08 291.208,1175.37 183.814,947.456C177.848,934.33 173.075,921.204 170.688,908.078C152.789,830.515 139.663,752.953 130.117,674.197C119.377,587.088 113.411,499.98 113.411,412.871C114.604,406.905 114.604,403.325 114.604,397.359Z" style="fill:rgb(247,168,0);fill-rule:nonzero;"/>
                    <path d="M1874.68,1826.89C1877.06,1804.22 1879.45,1783.94 1880.64,1762.46C1886.61,1644.33 1861.55,1532.16 1805.47,1428.34C1751.77,1329.3 1676.59,1250.55 1579.94,1190.88C1571.59,1184.92 1562.04,1180.14 1553.69,1174.18C1421.23,1090.65 1340.09,972.514 1311.45,818.583C1260.14,541.744 1434.36,274.452 1707.62,208.822C1804.27,186.15 1898.54,188.537 1992.81,218.368C2070.37,242.234 2144.36,274.452 2218.34,309.057C2269.65,332.922 2318.57,359.174 2367.5,386.619C2373.46,390.199 2378.24,392.586 2385.4,397.359C2385.4,402.132 2386.59,405.712 2386.59,410.485C2386.59,473.728 2383.01,538.164 2378.24,601.408C2369.88,694.483 2355.56,787.558 2336.47,878.246C2278,1147.92 2174.19,1397.32 2023.84,1628.81C1982.07,1693.25 1936.73,1755.3 1889,1814.96C1884.22,1818.54 1881.84,1823.32 1874.68,1826.89Z" style="fill:rgb(103,178,232);fill-rule:nonzero;"/>
                    <path d="M1250.6,2360.29C1232.7,2353.13 1177.81,2319.72 1119.34,2280.34C989.271,2193.23 868.75,2092.99 758.97,1980.83C649.189,1868.66 551.341,1745.75 467.812,1613.3C389.056,1490.39 323.426,1361.52 270.923,1225.49C269.729,1221.91 268.536,1219.52 267.343,1213.56C273.309,1217.13 275.696,1218.33 279.275,1220.71C321.04,1252.93 365.191,1280.38 412.922,1300.66C473.778,1326.91 537.022,1344.81 603.845,1350.78C738.684,1363.91 865.171,1336.46 984.498,1269.64C1046.55,1235.03 1113.37,1212.36 1183.77,1202.82C1433.17,1171.79 1681.37,1319.76 1758.93,1577.5C1798.31,1709.95 1786.38,1838.83 1725.52,1964.12C1717.16,1980.83 1710.01,1996.34 1701.65,2011.85C1696.88,2021.4 1690.91,2030.94 1682.56,2038.1C1556.07,2157.43 1417.65,2262.44 1267.3,2350.74C1261.34,2354.32 1255.37,2357.9 1250.6,2360.29Z" style="fill:rgb(0,196,179);fill-rule:nonzero;"/>
                </g>
            </g>
        </g>
    </g>
</svg>
